<svg width="752" height="126" viewBox="0 0 752 126" fill="none" xmlns="http://www.w3.org/2000/svg">
<g clip-path="url(#clip0_5_1061)">
<path fill-rule="evenodd" clip-rule="evenodd" d="M75.779 15.9195C75.779 24.7115 68.9407 31.839 60.5048 31.839C57.4261 31.839 54.1955 32.2712 51.8376 34.3346L50.7431 35.2927C46.8387 38.7097 45.8964 44.4469 46.1491 49.7538C46.1683 50.1555 46.1781 50.5602 46.1781 50.9672C46.1781 54.9125 47.1782 58.9913 50.0385 61.5753L52.7818 64.0534C56.8828 67.7576 62.6563 68.3675 68.0827 68.3675C80.9652 68.3675 91.4086 79.2521 91.4086 92.6788C91.4086 106.105 80.9652 116.99 68.0827 116.99C55.2006 116.99 44.7572 106.105 44.7572 92.6788C44.7572 88.2349 43.7179 83.5942 40.4956 80.6835L38.8073 79.1582C34.7171 75.4634 28.9361 74.9232 23.524 75.0273C23.3793 75.03 23.2343 75.0315 23.089 75.0315C10.3373 75.0315 0 64.2574 0 50.9672C0 37.6767 10.3373 26.9027 23.089 26.9027C24.7888 26.9027 26.4457 27.094 28.0409 27.4576C32.3838 28.4466 37.1979 28.2967 40.602 25.3177L42.3812 23.7605C44.5252 21.8843 45.2305 18.8367 45.2305 15.9195C45.2305 7.12748 52.0692 0 60.5048 0C68.9407 0 75.779 7.12748 75.779 15.9195Z" fill="#55BBEB"/>
<path d="M114.523 99.6989H151.519C174.327 99.6989 187.056 89.8225 187.056 74.1746C187.056 61.3483 178.57 55.0634 166.238 53.5241C176.846 51.3436 183.741 44.9305 183.741 33.6434C183.741 18.6367 171.276 9.91479 149.795 9.91479H114.523V99.6989ZM150.326 25.0498C158.945 25.0498 163.851 29.2825 163.851 35.9522C163.851 42.6218 158.812 46.8545 150.326 46.8545H134.414V25.0498H150.326ZM151.652 61.733C161.066 61.733 166.636 65.9657 166.636 73.2765C166.636 80.203 161.199 84.4357 151.652 84.4357H134.414V61.733H151.652Z" fill="white"/>
<path d="M229.849 100.469C248.015 100.469 259.816 90.2075 261.938 77.3813H243.506C241.915 83.5379 236.611 86.7447 229.053 86.7447C219.638 86.7447 213.406 81.101 213.008 71.7379V70.8399H262.468C262.866 68.7877 262.999 66.6072 262.999 64.6832C262.733 45.3155 248.943 33.0024 228.522 33.0024C207.439 33.0024 193.516 46.3418 193.516 66.8637C193.516 87.2576 207.173 100.469 229.849 100.469ZM213.406 59.0399C214.467 51.2157 220.566 46.4701 228.655 46.4701C237.141 46.4701 242.843 50.9592 244.169 59.0399H213.406Z" fill="white"/>
<path d="M288.278 100.084L286.554 104.445C284.698 108.934 283.107 110.089 278.333 110.089H267.99V125.352H286.157C296.765 125.352 300.212 119.965 304.455 109.062L334.688 33.772H314.666L298.488 80.7162L281.913 33.772H262.023L288.278 100.084Z" fill="white"/>
<path d="M349.128 26.7173C355.228 26.7173 360.002 22.3563 360.002 16.5845C360.002 10.6844 355.228 6.32349 349.128 6.32349C343.029 6.32349 338.255 10.6844 338.255 16.5845C338.255 22.3563 343.029 26.7173 349.128 26.7173ZM339.713 99.6989H358.543V33.7717H339.713V99.6989Z" fill="white"/>
<path d="M451.662 33.0025C441.319 33.0025 433.362 37.1069 428.591 44.1615C424.346 35.8243 416.525 32.8742 408.171 33.0025C398.225 33.1308 392.258 36.8504 388.149 41.981L386.423 33.7721H370.113V99.6993H388.81V63.7856C388.81 53.9092 394.116 47.8812 402.203 47.8812C410.423 47.8812 414.138 53.0116 414.138 62.8879V99.6993H432.832V63.6574C432.832 53.6528 438.269 47.8812 446.357 47.8812C454.449 47.8812 458.16 53.0116 458.16 62.8879V99.6993H476.858V61.8616C476.858 40.6982 465.717 33.0025 451.662 33.0025Z" fill="white"/>
<path d="M479.596 11.2124H548.595V27.329H523.437V98.667H504.754V27.329H479.596V11.2124Z" fill="white"/>
<path d="M543.715 66.6835C543.715 60.0203 545.042 54.2318 547.7 49.3175C550.441 44.3203 554.217 40.4889 559.033 37.8234C563.932 35.075 569.58 33.7007 575.972 33.7007C582.447 33.7007 588.135 34.9917 593.035 37.5737C598.017 40.0725 601.878 43.6538 604.616 48.318C607.439 52.8992 608.894 58.3128 608.977 64.5596C608.977 66.8084 608.812 68.8074 608.477 70.5567H562.022V71.0565C562.44 75.7207 563.932 79.3853 566.508 82.0505C569.08 84.716 572.61 86.0485 577.092 86.0485C580.664 86.0485 583.612 85.2991 585.936 83.7998C588.342 82.2172 589.921 79.9266 590.67 76.9284H607.981C607.315 81.1762 605.698 85.0075 603.123 88.4225C600.547 91.8371 597.144 94.5441 592.911 96.5431C588.677 98.4588 583.819 99.4165 578.337 99.4165C571.197 99.4165 565.011 98.0839 559.781 95.4188C554.634 92.7532 550.648 88.9637 547.824 84.0495C545.083 79.0523 543.715 73.2634 543.715 66.6835ZM591.414 59.0626C590.835 55.1479 589.215 52.1494 586.556 50.0673C583.984 47.9016 580.706 46.8187 576.72 46.8187C572.9 46.8187 569.663 47.9435 567.004 50.1922C564.432 52.3576 562.895 55.3146 562.394 59.0626H591.414Z" fill="white"/>
<path d="M680.098 74.3048C678.936 82.1338 675.616 88.2973 670.134 92.7951C664.738 97.2096 657.722 99.4165 649.086 99.4165C642.445 99.4165 636.632 98.0839 631.65 95.4188C626.668 92.6703 622.807 88.797 620.07 83.7998C617.411 78.8022 616.084 73.0552 616.084 66.5587C616.084 59.9788 617.411 54.2318 620.07 49.3175C622.807 44.3203 626.668 40.4889 631.65 37.8234C636.715 35.075 642.569 33.7007 649.213 33.7007C657.764 33.7007 664.738 35.9079 670.134 40.3222C675.533 44.6533 678.853 50.692 680.098 58.438H661.915C661.166 55.2728 659.674 52.774 657.433 50.9416C655.188 49.026 652.409 48.0683 649.086 48.0683C644.521 48.0683 640.866 49.7758 638.129 53.1908C635.388 56.6053 634.015 61.0617 634.015 66.5587C634.015 72.0556 635.388 76.512 638.129 79.9266C640.866 83.3415 644.521 85.049 649.086 85.049C652.492 85.049 655.316 84.0914 657.557 82.1757C659.88 80.26 661.377 77.6364 662.039 74.3048H680.098Z" fill="white"/>
<path d="M726.093 33.7007C733.651 33.7007 739.836 36.0329 744.653 40.6972C749.552 45.3613 752 53.0656 752 63.8102V98.667H734.441V64.5597C734.441 59.229 733.358 55.1894 731.199 52.441C729.041 49.6091 725.804 48.1932 721.487 48.1932C717.002 48.1932 713.475 49.734 710.899 52.8159C708.41 55.8974 707.162 60.187 707.162 65.684V98.667H689.603V11.2124H707.162V42.3213C711.896 36.5742 718.205 33.7007 726.093 33.7007Z" fill="white"/>
</g>
<defs>
<clipPath id="clip0_5_1061">
<rect width="752" height="125.6" fill="white"/>
</clipPath>
</defs>
</svg>
